<?xml version="1.0" encoding="UTF-8" standalone="no"?>
<!-- Created with Inkscape (http://www.inkscape.org/) -->

<svg
   width="300"
   height="300"
   viewBox="0 0 300 300"
   version="1.1"
   id="svg1"
   xml:space="preserve"
   inkscape:version="1.3.2 (091e20e, 2023-11-25, custom)"
   sodipodi:docname="logo.svg"
   inkscape:export-filename="..\public\img\logo_transparent.svg"
   inkscape:export-xdpi="96"
   inkscape:export-ydpi="96"
   xmlns:inkscape="http://www.inkscape.org/namespaces/inkscape"
   xmlns:sodipodi="http://sodipodi.sourceforge.net/DTD/sodipodi-0.dtd"
   xmlns="http://www.w3.org/2000/svg"
   xmlns:svg="http://www.w3.org/2000/svg"><sodipodi:namedview
     id="namedview1"
     pagecolor="#505050"
     bordercolor="#ffffff"
     borderopacity="1"
     inkscape:showpageshadow="0"
     inkscape:pageopacity="0"
     inkscape:pagecheckerboard="1"
     inkscape:deskcolor="#505050"
     inkscape:document-units="px"
     inkscape:zoom="2.9633333"
     inkscape:cx="259.33633"
     inkscape:cy="270.64117"
     inkscape:window-width="3840"
     inkscape:window-height="2036"
     inkscape:window-x="-12"
     inkscape:window-y="-12"
     inkscape:window-maximized="1"
     inkscape:current-layer="layer2" /><defs
     id="defs1" /><g
     inkscape:groupmode="layer"
     id="layer2"
     inkscape:label="drawing"><g
       id="g1"><rect
         style="opacity:1;fill:#ffffff;fill-opacity:1;stroke:none;stroke-width:1;stroke-dasharray:none;stroke-opacity:1"
         id="rect29"
         width="300"
         height="300"
         x="0"
         y="0" /><g
         id="g28"
         transform="translate(16.551699,-19.23608)"><g
           id="g22"><path
             style="opacity:1;fill:#f2d029;fill-opacity:1;stroke:#1f2217;stroke-width:4;stroke-dasharray:none;stroke-opacity:1"
             d="m 49.437571,217.32284 c -0.985248,-4.31911 7.43452,-7.06028 5.750876,-11.9815 C 41.67341,165.83741 54.29796,119.85653 97.227579,92.810691 108.6798,85.595741 125.22399,81.414706 139.39788,80.689693 c 17.23204,-0.881442 31.5245,3.168575 31.5245,3.168575 0,0 10.05336,-8.38851 15.86052,-7.592801 4.14635,0.568142 8.17425,4.281426 9.44882,8.267716 1.65032,5.161481 -6.2634,8.131489 -3.75418,15.817277 15.37896,47.10599 6.45654,71.22021 -6.86581,89.93036 -28.2014,39.60656 -69.22508,44.24674 -113.733214,33.79117 -1.829915,-0.42987 -4.981979,4.9534 -8.098989,4.72441 -6.105766,-0.44856 -12.98037,-5.50467 -14.341956,-11.47356 z"
             id="path17"
             sodipodi:nodetypes="assscaasssaa" /><path
             style="opacity:1;fill:#a9cd3b;fill-opacity:1;stroke:#1f2216;stroke-width:4;stroke-dasharray:none;stroke-opacity:1"
             d="m 195.85342,88.407067 8.81475,2.875273 c 20.68993,-26.103381 41.92973,-25.142378 64.45444,-15.691789 -3.86451,14.609273 -25.31878,48.805459 -64.96063,16.197975 -2.30926,-1.899485 -8.30856,-3.381459 -8.30856,-3.381459 z"
             id="path18"
             sodipodi:nodetypes="cccsc" /><path
             style="opacity:1;fill:#f1ae28;fill-opacity:0.759784;stroke:none;stroke-width:2;stroke-dasharray:none;stroke-opacity:1"
             d="m 56.864978,224.015 c -3.498603,-2.89235 15.501716,-14.659 19.980156,-13.992 10.01486,1.49157 35.671916,9.0161 58.700196,-1.67033 14.45682,-6.70878 26.36521,-15.74922 33.43152,-28.5997 5.69868,-10.36337 13.90184,-26.69625 15.67359,-41.32037 3.06119,-25.26735 -8.29973,-37.22829 2.43654,-52.49132 1.25265,-2.08616 3.10887,-5.887379 4.71272,-4.786853 0,0 2.93502,3.406801 2.76283,4.62061 -0.28981,2.042889 -3.77364,6.21636 -4.31669,9.719511 -0.29745,1.918848 0.0695,3.709921 0.34274,5.539752 0.0706,0.47263 0.24985,0.77049 0.37027,1.15716 0.0927,0.29776 -0.0786,-0.14516 0.27125,0.89542 1.43749,4.27518 2.87903,9.87996 4.0031,14.64397 1.74892,7.41217 2.76781,13.59454 3.12928,19.03371 0.47538,7.1532 0.66956,13.31534 -0.74321,20.70158 -1.17793,6.15847 -3.13091,14.53175 -6.71794,20.6637 -9.68779,16.56106 -20.80583,31.71409 -41.43106,40.97363 -5.44921,2.44638 -12.2654,4.28856 -18.62233,5.52769 -17.06193,3.32582 -33.586299,3.67114 -60.182805,-2.64297 0,0 -2.979724,2.5451 -4.601704,3.63666 -0.637789,0.42922 -1.867463,1.22608 -2.006097,1.13781 -0.822093,-0.20296 -0.937255,-0.0498 -1.6627,-0.20452 -0.42854,-0.0914 -1.283651,-0.4067 -2.04539,-0.65112 -1.258415,-0.40378 -2.212824,-0.8409 -3.484266,-1.89202 z"
             id="path19"
             sodipodi:nodetypes="ssssacssssassssssscacsss" /><path
             style="opacity:1;fill:#fdfdfd;fill-opacity:0.556863;stroke:none;stroke-width:1;stroke-dasharray:none;stroke-opacity:1"
             d="m 208.36666,91.071661 c 9.4746,-13.757122 31.75877,-19.809866 46.52335,-14.403123 -19.4235,-2.14678 -31.34433,3.855231 -46.52335,14.403123 z"
             id="path20"
             sodipodi:nodetypes="ccc" /><path
             style="opacity:1;fill:#fbfdfb;fill-opacity:0.723347;stroke:none;stroke-width:2;stroke-dasharray:none"
             d="m 128.15605,91.433668 c 0.56837,-6.86093 -31.635158,7.184362 -46.31609,25.731162 -7.514068,9.49272 -13.808151,20.59787 -17.653011,32.22722 -1.336737,4.04316 -3.756053,10.4715 -1.750813,12.65467 4.847017,5.27711 5.570649,-7.63793 10.71705,-20.20061 3.862389,-9.42832 10.432775,-18.82864 15.378062,-23.97975 5.081072,-5.29255 13.177572,-10.4043 20.167282,-15.03641 6.26549,-4.15216 19.27096,-9.144238 19.45752,-11.396282 z"
             id="path21"
             sodipodi:nodetypes="ssasssas" /><path
             style="opacity:1;fill:#7eae41;fill-opacity:0.916329;stroke:none;stroke-width:1;stroke-dasharray:none;stroke-opacity:1"
             d="m 211.91949,94.742449 c 22.75463,5.496881 33.60391,0.121309 52.90323,-14.003891 -5.17996,12.475974 -12.81994,20.978812 -26.87706,22.646512 -8.75163,1.03827 -18.19967,-1.94599 -26.02617,-8.642621 z"
             id="path22"
             sodipodi:nodetypes="ccsc" /></g><ellipse
           style="opacity:1;fill:#000000;fill-opacity:0.736842;stroke:none;stroke-width:1;stroke-dasharray:none;stroke-opacity:1"
           id="ellipse22"
           cx="61.671066"
           cy="93.975433"
           rx="4.8916836"
           ry="5.0513363" /><ellipse
           style="opacity:1;fill:#000000;fill-opacity:0.68556;stroke:none;stroke-width:0.414634;stroke-dasharray:none;stroke-opacity:1"
           id="ellipse23"
           cx="81.237801"
           cy="91.071663"
           rx="2.028259"
           ry="2.0944564" /><ellipse
           style="opacity:1;fill:#000000;fill-opacity:0.68556;stroke:none;stroke-width:0.414634;stroke-dasharray:none;stroke-opacity:1"
           id="ellipse24"
           cx="153.06203"
           cy="232.97192"
           rx="2.028259"
           ry="2.0944564" /><ellipse
           style="opacity:1;fill:#000000;fill-opacity:0.68556;stroke:none;stroke-width:1.14634;stroke-dasharray:none;stroke-opacity:1"
           id="ellipse25"
           cx="135.64287"
           cy="244.90286"
           rx="5.6075397"
           ry="5.790556" /><ellipse
           style="opacity:1;fill:#000000;fill-opacity:0.68556;stroke:none;stroke-width:0.853657;stroke-dasharray:none;stroke-opacity:1"
           id="ellipse26"
           cx="222.50008"
           cy="182.862"
           rx="4.1758275"
           ry="4.3121161" /><ellipse
           style="opacity:1;fill:#000000;fill-opacity:0.68556;stroke:none;stroke-width:0.711666;stroke-dasharray:none;stroke-opacity:1"
           id="ellipse27"
           cx="195.2332"
           cy="209.11006"
           rx="3.4812508"
           ry="3.5948701" /><ellipse
           style="opacity:1;fill:#000000;fill-opacity:0.183536;stroke:none;stroke-width:1;stroke-dasharray:none;stroke-opacity:1"
           id="ellipse28"
           cx="135.19054"
           cy="275.00806"
           rx="76.728951"
           ry="8.4709644" /></g></g></g></svg>
