<?xml version="1.0" encoding="UTF-8" standalone="no"?>
<!-- Created with Inkscape (http://www.inkscape.org/) -->

<svg
   width="300"
   height="300"
   viewBox="0 0 300 300"
   version="1.1"
   id="svg1"
   xml:space="preserve"
   inkscape:version="1.3.2 (091e20e, 2023-11-25, custom)"
   sodipodi:docname="logo.svg"
   inkscape:export-filename="..\public\img\logo_with_text.svg"
   inkscape:export-xdpi="96"
   inkscape:export-ydpi="96"
   xmlns:inkscape="http://www.inkscape.org/namespaces/inkscape"
   xmlns:sodipodi="http://sodipodi.sourceforge.net/DTD/sodipodi-0.dtd"
   xmlns="http://www.w3.org/2000/svg"
   xmlns:svg="http://www.w3.org/2000/svg"><sodipodi:namedview
     id="namedview1"
     pagecolor="#505050"
     bordercolor="#ffffff"
     borderopacity="1"
     inkscape:showpageshadow="0"
     inkscape:pageopacity="0"
     inkscape:pagecheckerboard="1"
     inkscape:deskcolor="#505050"
     inkscape:document-units="px"
     inkscape:zoom="1.4816667"
     inkscape:cx="235.2081"
     inkscape:cy="343.53206"
     inkscape:window-width="3840"
     inkscape:window-height="2036"
     inkscape:window-x="-12"
     inkscape:window-y="-12"
     inkscape:window-maximized="1"
     inkscape:current-layer="layer2" /><defs
     id="defs1"><rect
       x="141.48876"
       y="318.22272"
       width="545.80033"
       height="145.9505"
       id="rect41" /><inkscape:path-effect
       effect="powerclip"
       id="path-effect10"
       is_visible="true"
       lpeversion="1"
       inverse="true"
       flatten="false"
       hide_clip="false"
       message="Use fill-rule evenodd on &lt;b&gt;fill and stroke&lt;/b&gt; dialog if no flatten result after convert clip to paths." /><clipPath
       clipPathUnits="userSpaceOnUse"
       id="clipPath10"><path
         style="display:block;opacity:1;fill:#f1ae28;fill-opacity:0.759784;stroke:none;stroke-width:2.00461;stroke-dasharray:none;stroke-opacity:1"
         d="m -96.206954,200.96304 c -3.514736,-2.89235 15.573212,-14.659 20.072307,-13.992 10.06105,1.49157 35.000412,7.00028 58.97093,-1.67033 13.4657508,-8.62218 26.4868101,-15.74922 33.585711,-28.5997 5.724963,-10.36337 13.965958,-26.69625 15.745879,-41.32037 3.075309,-25.267346 -8.338009,-37.228286 2.447778,-52.491316 1.258427,-2.08616 3.123208,-5.887379 4.734456,-4.786853 0,0 2.948556,3.406801 2.775572,4.62061 -0.36172,2.538109 -2.640251,4.305988 -3.799835,7.782462 -0.223536,0.670169 -0.03325,0.905624 -0.282165,1.555085 -0.181503,0.473471 -0.83207,1.384374 -0.720739,1.773978 4.883229,17.089168 7.910919,29.254074 8.620215,39.877994 0.477573,7.1532 0.672648,13.31534 -0.746638,20.70158 -1.183362,6.15847 -3.14535,14.53175 -6.748924,20.6637 -9.732471,16.56106 -20.901789,31.71409 -41.6221462,40.97363 -5.4743425,2.44638 -12.3219698,4.28856 -18.7082188,5.52769 -17.140622,3.32582 -33.741204,3.67114 -60.460377,-2.64297 0,0 -6.262493,5.01265 -6.638277,4.77447 -2.488952,-0.61167 -4.520316,-0.52149 -7.225528,-2.74766 z"
         id="path10"
         sodipodi:nodetypes="sscsacssssssssssccs" /></clipPath></defs><g
     inkscape:label="Ref"
     inkscape:groupmode="layer"
     id="layer1" /><g
     inkscape:groupmode="layer"
     id="layer2"
     inkscape:label="drawing"><g
       id="g16"
       transform="translate(-453.88076,-127.2216)"><g
         id="g12"><path
           style="opacity:1;fill:#f2d029;fill-opacity:1;stroke:#1f2217;stroke-width:4;stroke-dasharray:none;stroke-opacity:1"
           d="m 49.437571,217.32284 c -0.985248,-4.31911 7.43452,-7.06028 5.750876,-11.9815 C 41.67341,165.83741 54.29796,119.85653 97.227579,92.810691 108.6798,85.595741 125.22399,81.414706 139.39788,80.689693 c 17.23204,-0.881442 31.5245,3.168575 31.5245,3.168575 0,0 10.05336,-8.38851 15.86052,-7.592801 4.14635,0.568142 8.17425,4.281426 9.44882,8.267716 1.65032,5.161481 -6.2634,8.131489 -3.75418,15.817277 15.37896,47.10599 6.45654,71.22021 -6.86581,89.93036 -28.2014,39.60656 -69.22508,44.24674 -113.733214,33.79117 -1.829915,-0.42987 -4.981979,4.9534 -8.098989,4.72441 -6.105766,-0.44856 -12.98037,-5.50467 -14.341956,-11.47356 z"
           id="path1"
           sodipodi:nodetypes="assscaasssaa" /><path
           style="opacity:1;fill:#a9cd3b;fill-opacity:1;stroke:#1f2216;stroke-width:4;stroke-dasharray:none;stroke-opacity:1"
           d="m 195.85342,88.407067 8.81475,2.875273 c 20.68993,-26.103381 41.92973,-25.142378 64.45444,-15.691789 -3.86451,14.609273 -25.31878,48.805459 -64.96063,16.197975 -2.30926,-1.899485 -8.30856,-3.381459 -8.30856,-3.381459 z"
           id="path2"
           sodipodi:nodetypes="cccsc" /><path
           style="opacity:1;fill:#f1ae28;fill-opacity:0.759784;stroke:none;stroke-width:2;stroke-dasharray:none;stroke-opacity:1"
           d="m 56.864978,224.015 c -3.498603,-2.89235 15.501716,-14.659 19.980156,-13.992 10.01486,1.49157 35.671916,9.0161 58.700196,-1.67033 14.45682,-6.70878 26.36521,-15.74922 33.43152,-28.5997 5.69868,-10.36337 13.90184,-26.69625 15.67359,-41.32037 3.06119,-25.26735 -8.29973,-37.22829 2.43654,-52.49132 1.25265,-2.08616 3.10887,-5.887379 4.71272,-4.786853 0,0 2.93502,3.406801 2.76283,4.62061 -0.28981,2.042889 -3.77364,6.21636 -4.31669,9.719511 -0.29745,1.918848 0.0695,3.709921 0.34274,5.539752 0.0706,0.47263 0.24985,0.77049 0.37027,1.15716 0.0927,0.29776 -0.0786,-0.14516 0.27125,0.89542 1.43749,4.27518 2.87903,9.87996 4.0031,14.64397 1.74892,7.41217 2.76781,13.59454 3.12928,19.03371 0.47538,7.1532 0.66956,13.31534 -0.74321,20.70158 -1.17793,6.15847 -3.13091,14.53175 -6.71794,20.6637 -9.68779,16.56106 -20.80583,31.71409 -41.43106,40.97363 -5.44921,2.44638 -12.2654,4.28856 -18.62233,5.52769 -17.06193,3.32582 -33.586299,3.67114 -60.182805,-2.64297 0,0 -2.979724,2.5451 -4.601704,3.63666 -0.637789,0.42922 -1.867463,1.22608 -2.006097,1.13781 -0.822093,-0.20296 -0.937255,-0.0498 -1.6627,-0.20452 -0.42854,-0.0914 -1.283651,-0.4067 -2.04539,-0.65112 -1.258415,-0.40378 -2.212824,-0.8409 -3.484266,-1.89202 z"
           id="path4"
           sodipodi:nodetypes="ssssacssssassssssscacsss" /><path
           style="opacity:1;fill:#fdfdfd;fill-opacity:0.556863;stroke:none;stroke-width:1;stroke-dasharray:none;stroke-opacity:1"
           d="m 208.36666,91.071661 c 9.4746,-13.757122 31.75877,-19.809866 46.52335,-14.403123 -19.4235,-2.14678 -31.34433,3.855231 -46.52335,14.403123 z"
           id="path5"
           sodipodi:nodetypes="ccc" /><path
           style="opacity:1;fill:#fbfdfb;fill-opacity:0.723347;stroke:none;stroke-width:2;stroke-dasharray:none"
           d="m 128.15605,91.433668 c 0.56837,-6.86093 -31.635158,7.184362 -46.31609,25.731162 -7.514068,9.49272 -13.808151,20.59787 -17.653011,32.22722 -1.336737,4.04316 -3.756053,10.4715 -1.750813,12.65467 4.847017,5.27711 5.570649,-7.63793 10.71705,-20.20061 3.862389,-9.42832 10.432775,-18.82864 15.378062,-23.97975 5.081072,-5.29255 13.177572,-10.4043 20.167282,-15.03641 6.26549,-4.15216 19.27096,-9.144238 19.45752,-11.396282 z"
           id="path3"
           sodipodi:nodetypes="ssasssas" /><path
           style="opacity:1;fill:#7eae41;fill-opacity:0.916329;stroke:none;stroke-width:1;stroke-dasharray:none;stroke-opacity:1"
           d="m 211.91949,94.742449 c 22.75463,5.496881 33.60391,0.121309 52.90323,-14.003891 -5.17996,12.475974 -12.81994,20.978812 -26.87706,22.646512 -8.75163,1.03827 -18.19967,-1.94599 -26.02617,-8.642621 z"
           id="path6"
           sodipodi:nodetypes="ccsc" /></g><ellipse
         style="opacity:1;fill:#000000;fill-opacity:0.736842;stroke:none;stroke-width:1;stroke-dasharray:none;stroke-opacity:1"
         id="path12"
         cx="61.671066"
         cy="93.975433"
         rx="4.8916836"
         ry="5.0513363" /><ellipse
         style="opacity:1;fill:#000000;fill-opacity:0.68556;stroke:none;stroke-width:0.414634;stroke-dasharray:none;stroke-opacity:1"
         id="ellipse12"
         cx="81.237801"
         cy="91.071663"
         rx="2.028259"
         ry="2.0944564" /><ellipse
         style="opacity:1;fill:#000000;fill-opacity:0.68556;stroke:none;stroke-width:0.414634;stroke-dasharray:none;stroke-opacity:1"
         id="ellipse13"
         cx="153.06203"
         cy="232.97192"
         rx="2.028259"
         ry="2.0944564" /><ellipse
         style="opacity:1;fill:#000000;fill-opacity:0.68556;stroke:none;stroke-width:1.14634;stroke-dasharray:none;stroke-opacity:1"
         id="ellipse14"
         cx="135.64287"
         cy="244.90286"
         rx="5.6075397"
         ry="5.790556" /><ellipse
         style="opacity:1;fill:#000000;fill-opacity:0.68556;stroke:none;stroke-width:0.853657;stroke-dasharray:none;stroke-opacity:1"
         id="ellipse15"
         cx="222.50008"
         cy="182.862"
         rx="4.1758275"
         ry="4.3121161" /><ellipse
         style="opacity:1;fill:#000000;fill-opacity:0.68556;stroke:none;stroke-width:0.711666;stroke-dasharray:none;stroke-opacity:1"
         id="ellipse16"
         cx="195.2332"
         cy="209.11006"
         rx="3.4812508"
         ry="3.5948701" /><ellipse
         style="opacity:1;fill:#000000;fill-opacity:0.183536;stroke:none;stroke-width:1;stroke-dasharray:none;stroke-opacity:1"
         id="path16"
         cx="135.19054"
         cy="275.00806"
         rx="76.728951"
         ry="8.4709644" /></g><g
       id="g1"><rect
         style="opacity:1;fill:#ffffff;fill-opacity:1;stroke:none;stroke-width:1;stroke-dasharray:none;stroke-opacity:1"
         id="rect29"
         width="300"
         height="300"
         x="0"
         y="0" /><g
         id="g28"
         transform="translate(16.551699,-19.23608)"><g
           id="g22"><path
             style="opacity:1;fill:#f2d029;fill-opacity:1;stroke:#1f2217;stroke-width:4;stroke-dasharray:none;stroke-opacity:1"
             d="m 49.437571,217.32284 c -0.985248,-4.31911 7.43452,-7.06028 5.750876,-11.9815 C 41.67341,165.83741 54.29796,119.85653 97.227579,92.810691 108.6798,85.595741 125.22399,81.414706 139.39788,80.689693 c 17.23204,-0.881442 31.5245,3.168575 31.5245,3.168575 0,0 10.05336,-8.38851 15.86052,-7.592801 4.14635,0.568142 8.17425,4.281426 9.44882,8.267716 1.65032,5.161481 -6.2634,8.131489 -3.75418,15.817277 15.37896,47.10599 6.45654,71.22021 -6.86581,89.93036 -28.2014,39.60656 -69.22508,44.24674 -113.733214,33.79117 -1.829915,-0.42987 -4.981979,4.9534 -8.098989,4.72441 -6.105766,-0.44856 -12.98037,-5.50467 -14.341956,-11.47356 z"
             id="path17"
             sodipodi:nodetypes="assscaasssaa" /><path
             style="opacity:1;fill:#a9cd3b;fill-opacity:1;stroke:#1f2216;stroke-width:4;stroke-dasharray:none;stroke-opacity:1"
             d="m 195.85342,88.407067 8.81475,2.875273 c 20.68993,-26.103381 41.92973,-25.142378 64.45444,-15.691789 -3.86451,14.609273 -25.31878,48.805459 -64.96063,16.197975 -2.30926,-1.899485 -8.30856,-3.381459 -8.30856,-3.381459 z"
             id="path18"
             sodipodi:nodetypes="cccsc" /><path
             style="opacity:1;fill:#f1ae28;fill-opacity:0.759784;stroke:none;stroke-width:2;stroke-dasharray:none;stroke-opacity:1"
             d="m 56.864978,224.015 c -3.498603,-2.89235 15.501716,-14.659 19.980156,-13.992 10.01486,1.49157 35.671916,9.0161 58.700196,-1.67033 14.45682,-6.70878 26.36521,-15.74922 33.43152,-28.5997 5.69868,-10.36337 13.90184,-26.69625 15.67359,-41.32037 3.06119,-25.26735 -8.29973,-37.22829 2.43654,-52.49132 1.25265,-2.08616 3.10887,-5.887379 4.71272,-4.786853 0,0 2.93502,3.406801 2.76283,4.62061 -0.28981,2.042889 -3.77364,6.21636 -4.31669,9.719511 -0.29745,1.918848 0.0695,3.709921 0.34274,5.539752 0.0706,0.47263 0.24985,0.77049 0.37027,1.15716 0.0927,0.29776 -0.0786,-0.14516 0.27125,0.89542 1.43749,4.27518 2.87903,9.87996 4.0031,14.64397 1.74892,7.41217 2.76781,13.59454 3.12928,19.03371 0.47538,7.1532 0.66956,13.31534 -0.74321,20.70158 -1.17793,6.15847 -3.13091,14.53175 -6.71794,20.6637 -9.68779,16.56106 -20.80583,31.71409 -41.43106,40.97363 -5.44921,2.44638 -12.2654,4.28856 -18.62233,5.52769 -17.06193,3.32582 -33.586299,3.67114 -60.182805,-2.64297 0,0 -2.979724,2.5451 -4.601704,3.63666 -0.637789,0.42922 -1.867463,1.22608 -2.006097,1.13781 -0.822093,-0.20296 -0.937255,-0.0498 -1.6627,-0.20452 -0.42854,-0.0914 -1.283651,-0.4067 -2.04539,-0.65112 -1.258415,-0.40378 -2.212824,-0.8409 -3.484266,-1.89202 z"
             id="path19"
             sodipodi:nodetypes="ssssacssssassssssscacsss" /><path
             style="opacity:1;fill:#fdfdfd;fill-opacity:0.556863;stroke:none;stroke-width:1;stroke-dasharray:none;stroke-opacity:1"
             d="m 208.36666,91.071661 c 9.4746,-13.757122 31.75877,-19.809866 46.52335,-14.403123 -19.4235,-2.14678 -31.34433,3.855231 -46.52335,14.403123 z"
             id="path20"
             sodipodi:nodetypes="ccc" /><path
             style="opacity:1;fill:#fbfdfb;fill-opacity:0.723347;stroke:none;stroke-width:2;stroke-dasharray:none"
             d="m 128.15605,91.433668 c 0.56837,-6.86093 -31.635158,7.184362 -46.31609,25.731162 -7.514068,9.49272 -13.808151,20.59787 -17.653011,32.22722 -1.336737,4.04316 -3.756053,10.4715 -1.750813,12.65467 4.847017,5.27711 5.570649,-7.63793 10.71705,-20.20061 3.862389,-9.42832 10.432775,-18.82864 15.378062,-23.97975 5.081072,-5.29255 13.177572,-10.4043 20.167282,-15.03641 6.26549,-4.15216 19.27096,-9.144238 19.45752,-11.396282 z"
             id="path21"
             sodipodi:nodetypes="ssasssas" /><path
             style="opacity:1;fill:#7eae41;fill-opacity:0.916329;stroke:none;stroke-width:1;stroke-dasharray:none;stroke-opacity:1"
             d="m 211.91949,94.742449 c 22.75463,5.496881 33.60391,0.121309 52.90323,-14.003891 -5.17996,12.475974 -12.81994,20.978812 -26.87706,22.646512 -8.75163,1.03827 -18.19967,-1.94599 -26.02617,-8.642621 z"
             id="path22"
             sodipodi:nodetypes="ccsc" /></g><ellipse
           style="opacity:1;fill:#000000;fill-opacity:0.736842;stroke:none;stroke-width:1;stroke-dasharray:none;stroke-opacity:1"
           id="ellipse22"
           cx="61.671066"
           cy="93.975433"
           rx="4.8916836"
           ry="5.0513363" /><ellipse
           style="opacity:1;fill:#000000;fill-opacity:0.68556;stroke:none;stroke-width:0.414634;stroke-dasharray:none;stroke-opacity:1"
           id="ellipse23"
           cx="81.237801"
           cy="91.071663"
           rx="2.028259"
           ry="2.0944564" /><ellipse
           style="opacity:1;fill:#000000;fill-opacity:0.68556;stroke:none;stroke-width:0.414634;stroke-dasharray:none;stroke-opacity:1"
           id="ellipse24"
           cx="153.06203"
           cy="232.97192"
           rx="2.028259"
           ry="2.0944564" /><ellipse
           style="opacity:1;fill:#000000;fill-opacity:0.68556;stroke:none;stroke-width:1.14634;stroke-dasharray:none;stroke-opacity:1"
           id="ellipse25"
           cx="135.64287"
           cy="244.90286"
           rx="5.6075397"
           ry="5.790556" /><ellipse
           style="opacity:1;fill:#000000;fill-opacity:0.68556;stroke:none;stroke-width:0.853657;stroke-dasharray:none;stroke-opacity:1"
           id="ellipse26"
           cx="222.50008"
           cy="182.862"
           rx="4.1758275"
           ry="4.3121161" /><ellipse
           style="opacity:1;fill:#000000;fill-opacity:0.68556;stroke:none;stroke-width:0.711666;stroke-dasharray:none;stroke-opacity:1"
           id="ellipse27"
           cx="195.2332"
           cy="209.11006"
           rx="3.4812508"
           ry="3.5948701" /><ellipse
           style="opacity:1;fill:#000000;fill-opacity:0.183536;stroke:none;stroke-width:1;stroke-dasharray:none;stroke-opacity:1"
           id="ellipse28"
           cx="135.19054"
           cy="275.00806"
           rx="76.728951"
           ry="8.4709644" /></g></g><g
       id="g2"
       inkscape:export-filename="..\public\img\logo_with_text.svg"
       inkscape:export-xdpi="96"
       inkscape:export-ydpi="96"><rect
         style="opacity:1;fill:#ffffff;fill-opacity:1;stroke:none;stroke-width:0.836661;stroke-dasharray:none;stroke-opacity:1"
         id="rect30"
         width="420"
         height="150"
         x="0.33745781"
         y="314.17322" /><g
         id="g41"
         transform="matrix(0.55070399,0,0,0.55070399,-12.786858,297.60538)"><g
           id="g35"><path
             style="opacity:1;fill:#f2d029;fill-opacity:1;stroke:#1f2217;stroke-width:4;stroke-dasharray:none;stroke-opacity:1"
             d="m 49.437571,217.32284 c -0.985248,-4.31911 7.43452,-7.06028 5.750876,-11.9815 C 41.67341,165.83741 54.29796,119.85653 97.227579,92.810691 108.6798,85.595741 125.22399,81.414706 139.39788,80.689693 c 17.23204,-0.881442 31.5245,3.168575 31.5245,3.168575 0,0 10.05336,-8.38851 15.86052,-7.592801 4.14635,0.568142 8.17425,4.281426 9.44882,8.267716 1.65032,5.161481 -6.2634,8.131489 -3.75418,15.817277 15.37896,47.10599 6.45654,71.22021 -6.86581,89.93036 -28.2014,39.60656 -69.22508,44.24674 -113.733214,33.79117 -1.829915,-0.42987 -4.981979,4.9534 -8.098989,4.72441 -6.105766,-0.44856 -12.98037,-5.50467 -14.341956,-11.47356 z"
             id="path30"
             sodipodi:nodetypes="assscaasssaa" /><path
             style="opacity:1;fill:#a9cd3b;fill-opacity:1;stroke:#1f2216;stroke-width:4;stroke-dasharray:none;stroke-opacity:1"
             d="m 195.85342,88.407067 8.81475,2.875273 c 20.68993,-26.103381 41.92973,-25.142378 64.45444,-15.691789 -3.86451,14.609273 -25.31878,48.805459 -64.96063,16.197975 -2.30926,-1.899485 -8.30856,-3.381459 -8.30856,-3.381459 z"
             id="path31"
             sodipodi:nodetypes="cccsc" /><path
             style="opacity:1;fill:#f1ae28;fill-opacity:0.759784;stroke:none;stroke-width:2;stroke-dasharray:none;stroke-opacity:1"
             d="m 56.864978,224.015 c -3.498603,-2.89235 15.501716,-14.659 19.980156,-13.992 10.01486,1.49157 35.671916,9.0161 58.700196,-1.67033 14.45682,-6.70878 26.36521,-15.74922 33.43152,-28.5997 5.69868,-10.36337 13.90184,-26.69625 15.67359,-41.32037 3.06119,-25.26735 -8.29973,-37.22829 2.43654,-52.49132 1.25265,-2.08616 3.10887,-5.887379 4.71272,-4.786853 0,0 2.93502,3.406801 2.76283,4.62061 -0.28981,2.042889 -3.77364,6.21636 -4.31669,9.719511 -0.29745,1.918848 0.0695,3.709921 0.34274,5.539752 0.0706,0.47263 0.24985,0.77049 0.37027,1.15716 0.0927,0.29776 -0.0786,-0.14516 0.27125,0.89542 1.43749,4.27518 2.87903,9.87996 4.0031,14.64397 1.74892,7.41217 2.76781,13.59454 3.12928,19.03371 0.47538,7.1532 0.66956,13.31534 -0.74321,20.70158 -1.17793,6.15847 -3.13091,14.53175 -6.71794,20.6637 -9.68779,16.56106 -20.80583,31.71409 -41.43106,40.97363 -5.44921,2.44638 -12.2654,4.28856 -18.62233,5.52769 -17.06193,3.32582 -33.586299,3.67114 -60.182805,-2.64297 0,0 -2.979724,2.5451 -4.601704,3.63666 -0.637789,0.42922 -1.867463,1.22608 -2.006097,1.13781 -0.822093,-0.20296 -0.937255,-0.0498 -1.6627,-0.20452 -0.42854,-0.0914 -1.283651,-0.4067 -2.04539,-0.65112 -1.258415,-0.40378 -2.212824,-0.8409 -3.484266,-1.89202 z"
             id="path32"
             sodipodi:nodetypes="ssssacssssassssssscacsss" /><path
             style="opacity:1;fill:#fdfdfd;fill-opacity:0.556863;stroke:none;stroke-width:1;stroke-dasharray:none;stroke-opacity:1"
             d="m 208.36666,91.071661 c 9.4746,-13.757122 31.75877,-19.809866 46.52335,-14.403123 -19.4235,-2.14678 -31.34433,3.855231 -46.52335,14.403123 z"
             id="path33"
             sodipodi:nodetypes="ccc" /><path
             style="opacity:1;fill:#fbfdfb;fill-opacity:0.723347;stroke:none;stroke-width:2;stroke-dasharray:none"
             d="m 128.15605,91.433668 c 0.56837,-6.86093 -31.635158,7.184362 -46.31609,25.731162 -7.514068,9.49272 -13.808151,20.59787 -17.653011,32.22722 -1.336737,4.04316 -3.756053,10.4715 -1.750813,12.65467 4.847017,5.27711 5.570649,-7.63793 10.71705,-20.20061 3.862389,-9.42832 10.432775,-18.82864 15.378062,-23.97975 5.081072,-5.29255 13.177572,-10.4043 20.167282,-15.03641 6.26549,-4.15216 19.27096,-9.144238 19.45752,-11.396282 z"
             id="path34"
             sodipodi:nodetypes="ssasssas" /><path
             style="opacity:1;fill:#7eae41;fill-opacity:0.916329;stroke:none;stroke-width:1;stroke-dasharray:none;stroke-opacity:1"
             d="m 211.91949,94.742449 c 22.75463,5.496881 33.60391,0.121309 52.90323,-14.003891 -5.17996,12.475974 -12.81994,20.978812 -26.87706,22.646512 -8.75163,1.03827 -18.19967,-1.94599 -26.02617,-8.642621 z"
             id="path35"
             sodipodi:nodetypes="ccsc" /></g><ellipse
           style="opacity:1;fill:#000000;fill-opacity:0.736842;stroke:none;stroke-width:1;stroke-dasharray:none;stroke-opacity:1"
           id="ellipse35"
           cx="61.671066"
           cy="93.975433"
           rx="4.8916836"
           ry="5.0513363" /><ellipse
           style="opacity:1;fill:#000000;fill-opacity:0.68556;stroke:none;stroke-width:0.414634;stroke-dasharray:none;stroke-opacity:1"
           id="ellipse36"
           cx="81.237801"
           cy="91.071663"
           rx="2.028259"
           ry="2.0944564" /><ellipse
           style="opacity:1;fill:#000000;fill-opacity:0.68556;stroke:none;stroke-width:0.414634;stroke-dasharray:none;stroke-opacity:1"
           id="ellipse37"
           cx="153.06203"
           cy="232.97192"
           rx="2.028259"
           ry="2.0944564" /><ellipse
           style="opacity:1;fill:#000000;fill-opacity:0.68556;stroke:none;stroke-width:1.14634;stroke-dasharray:none;stroke-opacity:1"
           id="ellipse38"
           cx="135.64287"
           cy="244.90286"
           rx="5.6075397"
           ry="5.790556" /><ellipse
           style="opacity:1;fill:#000000;fill-opacity:0.68556;stroke:none;stroke-width:0.853657;stroke-dasharray:none;stroke-opacity:1"
           id="ellipse39"
           cx="222.50008"
           cy="182.862"
           rx="4.1758275"
           ry="4.3121161" /><ellipse
           style="opacity:1;fill:#000000;fill-opacity:0.68556;stroke:none;stroke-width:0.711666;stroke-dasharray:none;stroke-opacity:1"
           id="ellipse40"
           cx="195.2332"
           cy="209.11006"
           rx="3.4812508"
           ry="3.5948701" /><ellipse
           style="opacity:1;fill:#000000;fill-opacity:0.183536;stroke:none;stroke-width:1;stroke-dasharray:none;stroke-opacity:1"
           id="ellipse41"
           cx="135.19054"
           cy="275.00806"
           rx="76.728951"
           ry="8.4709644" /></g><path
         style="font-weight:bold;font-size:56px;font-family:Monospace;-inkscape-font-specification:'Monospace Bold';text-align:center;letter-spacing:-1.95128px;word-spacing:-0.849383px;baseline-shift:baseline;text-anchor:middle;white-space:pre"
         d="m 265.33344,335.60941 c 0.34635,-0.47395 0.72005,-0.82942 1.12109,-1.0664 0.41927,-0.23698 0.86589,-0.35547 1.33984,-0.35547 0.82031,0 1.48568,0.28255 1.9961,0.84765 0.52865,0.56511 0.79297,1.52214 0.79297,2.8711 v 4.75781 c 0,1.34896 -0.26432,2.31511 -0.79297,2.89844 -0.51042,0.5651 -1.17579,0.84765 -1.9961,0.84765 -0.74739,0 -1.34895,-0.20963 -1.80468,-0.6289 -0.45573,-0.41927 -0.79297,-1.20313 -1.01172,-2.35156 -0.12761,-0.76563 -0.38282,-1.35808 -0.76563,-1.77735 -0.74739,-0.82031 -1.79557,-1.47656 -3.14453,-1.96875 -1.33073,-0.49219 -2.67057,-0.73828 -4.01953,-0.73828 -1.67709,0 -3.21745,0.36458 -4.62109,1.09375 -1.40365,0.72917 -2.64323,1.91406 -3.71875,3.55469 -1.07553,1.64063 -1.61329,3.59115 -1.61329,5.85156 v 3.63672 c 0,2.69791 0.97526,4.94922 2.92579,6.75391 1.96875,1.80469 4.69401,2.70703 8.17578,2.70703 2.07812,0 3.83723,-0.28255 5.27734,-0.84766 0.83854,-0.32813 1.73177,-0.97526 2.67969,-1.94141 0.58333,-0.58333 1.03906,-0.95703 1.36719,-1.12109 0.32812,-0.18229 0.70182,-0.27344 1.12109,-0.27344 0.74739,0 1.40364,0.28255 1.96875,0.84766 0.56511,0.56511 0.84766,1.23047 0.84766,1.99609 0,0.76563 -0.38281,1.58594 -1.14844,2.46094 -1.11198,1.27604 -2.54297,2.27864 -4.29297,3.00781 -2.35156,0.98438 -4.94922,1.47657 -7.79297,1.47657 -3.31771,0 -6.30729,-0.6836 -8.96875,-2.05079 -2.15104,-1.09375 -3.98307,-2.8164 -5.49609,-5.16796 -1.51302,-2.36979 -2.26953,-4.94922 -2.26953,-7.73829 v -3.80078 c 0,-2.91667 0.67448,-5.63281 2.02343,-8.14843 1.36719,-2.53386 3.25391,-4.48438 5.66016,-5.85157 2.40625,-1.36719 4.95833,-2.05078 7.65625,-2.05078 1.62239,0 3.13541,0.19141 4.53906,0.57422 1.42187,0.36459 2.74349,0.92969 3.96485,1.69531 z m 24.87293,-3.74609 v 5.93359 h -6.67187 v -5.93359 z m 0.76563,10.63672 v 19.22265 h 6.72656 c 1.34896,0 2.30599,0.26432 2.87109,0.79297 0.58333,0.51042 0.875,1.1849 0.875,2.02344 0,0.82031 -0.29167,1.49479 -0.875,2.02344 -0.5651,0.51041 -1.52213,0.76562 -2.87109,0.76562 h -19.05859 c -1.34896,0 -2.31511,-0.25521 -2.89844,-0.76562 -0.56511,-0.52865 -0.84766,-1.21224 -0.84766,-2.05078 0,-0.82031 0.28255,-1.48568 0.84766,-1.9961 0.58333,-0.52865 1.54948,-0.79297 2.89844,-0.79297 h 6.72656 v -13.61718 h -4.51172 c -1.33073,0 -2.28776,-0.25521 -2.87109,-0.76563 -0.58333,-0.52865 -0.875,-1.21224 -0.875,-2.05078 0,-0.82031 0.28255,-1.48568 0.84765,-1.99609 0.58333,-0.52865 1.54948,-0.79297 2.89844,-0.79297 z m 27.49794,5.60547 v 11.23828 c 0,1.20313 0.24609,1.99609 0.73828,2.3789 0.76563,0.60157 2.13281,0.90235 4.10156,0.90235 2.86198,0 5.50521,-0.61068 7.92969,-1.83203 0.92969,-0.47396 1.65885,-0.71094 2.1875,-0.71094 0.72917,0 1.35807,0.27344 1.88672,0.82031 0.54687,0.54687 0.82031,1.21224 0.82031,1.9961 0,0.72917 -0.29167,1.35807 -0.875,1.88671 -0.89323,0.85677 -2.66146,1.64974 -5.30469,2.37891 -2.625,0.71094 -4.83984,1.06641 -6.64453,1.06641 -3.48177,0 -6.09766,-0.7474 -7.84766,-2.24219 -1.73177,-1.51302 -2.59765,-3.36328 -2.59765,-5.55078 v -12.33203 h -2.02344 c -1.34896,0 -2.31511,-0.25521 -2.89844,-0.76563 -0.5651,-0.52865 -0.84765,-1.21224 -0.84765,-2.05078 0,-0.82031 0.28255,-1.48568 0.84765,-1.99609 0.58333,-0.52865 1.54948,-0.79297 2.89844,-0.79297 h 2.02344 v -5.0586 c 0,-1.34895 0.25521,-2.30598 0.76562,-2.87109 0.52865,-0.58333 1.21224,-0.875 2.05078,-0.875 0.82031,0 1.48568,0.29167 1.9961,0.875 0.52865,0.56511 0.79297,1.52214 0.79297,2.87109 v 5.0586 h 10.36328 c 1.34896,0 2.30599,0.26432 2.87109,0.79297 0.58333,0.51041 0.875,1.18489 0.875,2.02343 0,0.82031 -0.29167,1.49479 -0.875,2.02344 -0.5651,0.51042 -1.52213,0.76563 -2.87109,0.76563 z m 31.87293,-5.60547 v 3.5 c 2.35157,-1.69531 4.20183,-2.82552 5.55078,-3.39063 1.36719,-0.5651 2.64324,-0.84765 3.82813,-0.84765 1.82291,0 3.59114,0.67448 5.30469,2.02343 1.16667,0.91146 1.75,1.84115 1.75,2.78907 0,0.80208 -0.28255,1.48567 -0.84766,2.05078 -0.54687,0.54687 -1.21224,0.82031 -1.99609,0.82031 -0.69271,0 -1.42188,-0.34635 -2.1875,-1.03906 -0.76563,-0.69271 -1.44922,-1.03906 -2.05078,-1.03906 -0.78386,0 -1.95964,0.49219 -3.52735,1.47656 -1.54948,0.98437 -3.49089,2.46094 -5.82422,4.42969 v 8.44921 h 7.98438 c 1.34896,0 2.30599,0.26432 2.87109,0.79297 0.58333,0.51042 0.875,1.1849 0.875,2.02344 0,0.82031 -0.29167,1.49479 -0.875,2.02344 -0.5651,0.51041 -1.52213,0.76562 -2.87109,0.76562 h -16.92578 c -1.34896,0 -2.31511,-0.25521 -2.89844,-0.76562 -0.56511,-0.52865 -0.84766,-1.21224 -0.84766,-2.05078 0,-0.82031 0.28255,-1.48568 0.84766,-1.9961 0.58333,-0.52865 1.54948,-0.79297 2.89844,-0.79297 h 3.33593 v -13.61718 h -2.02343 c -1.34896,0 -2.31511,-0.25521 -2.89844,-0.76563 -0.56511,-0.52865 -0.84766,-1.21224 -0.84766,-2.05078 0,-0.82031 0.28255,-1.48568 0.84766,-1.99609 0.58333,-0.52865 1.54948,-0.79297 2.89844,-0.79297 z m 44.72451,0 v 19.22265 c 1.18489,0 2.05989,0.26432 2.625,0.79297 0.5651,0.52865 0.84765,1.20313 0.84765,2.02344 0,0.82031 -0.29167,1.49479 -0.875,2.02344 -0.5651,0.51041 -1.52213,0.76562 -2.87109,0.76562 h -5.33203 v -1.28515 c -1.60417,0.72917 -3.13542,1.27604 -4.59375,1.64062 -1.45833,0.36459 -2.84375,0.54688 -4.15625,0.54688 -1.84115,0 -3.4362,-0.38281 -4.78516,-1.14844 -1.34896,-0.78385 -2.41537,-1.85937 -3.19922,-3.22656 -0.5651,-0.98438 -0.84765,-2.21485 -0.84765,-3.69141 v -12.05859 h -0.95704 c -1.34895,0 -2.3151,-0.25521 -2.89843,-0.76563 -0.56511,-0.52865 -0.84766,-1.21224 -0.84766,-2.05078 0,-0.82031 0.28255,-1.48568 0.84766,-1.99609 0.58333,-0.52865 1.54948,-0.79297 2.89843,-0.79297 h 6.5625 v 16.67969 c 0,1.18489 0.28255,2.05989 0.84766,2.625 0.58333,0.54687 1.46745,0.82031 2.65234,0.82031 1.13021,0 2.34245,-0.21875 3.63672,-0.65625 1.3125,-0.45573 2.92578,-1.26693 4.83985,-2.4336 v -11.42968 h -2.02344 c -1.34896,0 -2.31511,-0.25521 -2.89844,-0.76563 -0.5651,-0.52865 -0.84765,-1.21224 -0.84765,-2.05078 0,-0.82031 0.28255,-1.48568 0.84765,-1.99609 0.58333,-0.52865 1.54948,-0.79297 2.89844,-0.79297 z m 25.80263,6.5625 c -0.91146,-0.56511 -1.86849,-0.98438 -2.87109,-1.25781 -1.00261,-0.29167 -2.05078,-0.4375 -3.14453,-0.4375 -2.16927,0 -3.89193,0.35547 -5.16797,1.0664 -0.56511,0.3099 -0.84766,0.64714 -0.84766,1.01172 0,0.41927 0.38281,0.82943 1.14844,1.23047 0.58333,0.29167 1.88672,0.57422 3.91015,0.84766 3.71875,0.51041 6.3073,1.02083 7.76563,1.53125 1.91406,0.67447 3.39062,1.67708 4.42969,3.00781 1.03906,1.33073 1.55859,2.73437 1.55859,4.21094 0,2.00521 -0.88411,3.68229 -2.65234,5.03125 -2.53385,1.95052 -5.82422,2.92578 -9.8711,2.92578 -1.62239,0 -3.1263,-0.14583 -4.51172,-0.4375 -1.36719,-0.27344 -2.625,-0.6836 -3.77343,-1.23047 -0.27344,0.23698 -0.56511,0.41927 -0.875,0.54687 -0.3099,0.12761 -0.62891,0.19141 -0.95703,0.19141 -0.875,0 -1.57682,-0.28255 -2.10547,-0.84766 -0.51042,-0.58333 -0.76563,-1.54948 -0.76563,-2.89843 v -1.88672 c 0,-1.34896 0.25521,-2.30599 0.76563,-2.8711 0.52865,-0.58333 1.21224,-0.875 2.05078,-0.875 0.67448,0 1.23958,0.19141 1.69531,0.57422 0.45573,0.36459 0.8112,1.00261 1.06641,1.91406 0.85677,0.72917 1.88671,1.28516 3.08984,1.66797 1.20313,0.36459 2.58854,0.54688 4.15625,0.54688 2.57031,0 4.56641,-0.40104 5.98828,-1.20313 0.67448,-0.40104 1.01172,-0.82031 1.01172,-1.25781 0,-0.72917 -0.48307,-1.33073 -1.44922,-1.80469 -0.96615,-0.47395 -2.96224,-0.87499 -5.98828,-1.20312 -4.50261,-0.47396 -7.51042,-1.38542 -9.02344,-2.73438 -1.51302,-1.33073 -2.26953,-2.97135 -2.26953,-4.92187 0,-2.00521 0.84766,-3.67318 2.54297,-5.00391 2.29687,-1.82291 5.30469,-2.73437 9.02344,-2.73437 1.29427,0 2.53385,0.1276 3.71875,0.38281 1.20313,0.23698 2.35156,0.61068 3.44531,1.12109 0.34635,-0.25521 0.66536,-0.44661 0.95703,-0.57422 0.3099,-0.1276 0.59245,-0.1914 0.84766,-0.1914 0.76563,0 1.40365,0.29167 1.91406,0.875 0.51042,0.5651 0.76563,1.52213 0.76563,2.87109 v 1.36719 c 0,1.22135 -0.14583,2.05078 -0.4375,2.48828 -0.58333,0.83854 -1.3763,1.25781 -2.37891,1.25781 -0.67448,0 -1.26693,-0.20963 -1.77734,-0.6289 -0.51042,-0.41927 -0.83855,-0.97526 -0.98438,-1.66797 z m 30.20582,6.89062 v 5.76953 h 5.66016 c 1.34896,0 2.30599,0.26432 2.87109,0.79297 0.58334,0.51042 0.875,1.1849 0.875,2.02344 0,0.82031 -0.29166,1.49479 -0.875,2.02344 -0.5651,0.51041 -1.52213,0.76562 -2.87109,0.76562 h -12.14063 c -1.34896,0 -2.3151,-0.25521 -2.89844,-0.76562 -0.5651,-0.52865 -0.84765,-1.21224 -0.84765,-2.05078 0,-0.82031 0.29167,-1.48568 0.875,-1.9961 0.58334,-0.52865 1.54037,-0.79297 2.87109,-0.79297 h 0.875 v -21.92968 h -0.875 c -1.34896,0 -2.3151,-0.25521 -2.89844,-0.76563 -0.5651,-0.52865 -0.84765,-1.21224 -0.84765,-2.05078 0,-0.83854 0.28255,-1.51302 0.84765,-2.02344 0.58334,-0.52865 1.54948,-0.79297 2.89844,-0.79297 l 12.90625,0.0274 c 3.79167,0 6.79037,1.03906 8.99609,3.11719 2.22396,2.05989 3.33594,4.57552 3.33594,7.54687 0,1.64063 -0.37369,3.19011 -1.12109,4.64844 -0.5651,1.09375 -1.51302,2.17838 -2.84375,3.2539 -1.3125,1.05729 -2.66146,1.85938 -4.04688,2.40625 -1.36718,0.52865 -3.18098,0.79299 -5.4414,0.79297 z m 0,-5.60547 h 5.19531 c 2.44271,0 4.375,-0.54687 5.79688,-1.64062 1.4401,-1.11198 2.16015,-2.44271 2.16015,-3.99219 0,-1.3125 -0.58333,-2.46094 -1.75,-3.44531 -1.14843,-0.98437 -2.79817,-1.47656 -4.94922,-1.47656 h -6.45312 z m 46.80263,-7.84765 v 19.22265 c 1.1849,0 2.0599,0.26432 2.625,0.79297 0.5651,0.52865 0.84765,1.20313 0.84765,2.02344 0,0.82031 -0.29166,1.49479 -0.875,2.02344 -0.5651,0.51041 -1.52213,0.76562 -2.87109,0.76562 h -5.33203 v -1.28515 c -1.60416,0.72917 -3.13541,1.27604 -4.59375,1.64062 -1.45833,0.36459 -2.84375,0.54688 -4.15625,0.54688 -1.84114,0 -3.4362,-0.38281 -4.78516,-1.14844 -1.34896,-0.78385 -2.41536,-1.85937 -3.19922,-3.22656 -0.5651,-0.98438 -0.84765,-2.21485 -0.84765,-3.69141 v -12.05859 h -0.95703 c -1.34896,0 -2.3151,-0.25521 -2.89844,-0.76563 -0.5651,-0.52865 -0.84766,-1.21224 -0.84766,-2.05078 0,-0.82031 0.28256,-1.48568 0.84766,-1.99609 0.58334,-0.52865 1.54948,-0.79297 2.89844,-0.79297 h 6.5625 v 16.67969 c 0,1.18489 0.28255,2.05989 0.84765,2.625 0.58334,0.54687 1.46745,0.82031 2.65235,0.82031 1.13021,0 2.34245,-0.21875 3.63671,-0.65625 1.3125,-0.45573 2.92579,-1.26693 4.83985,-2.4336 v -11.42968 h -2.02344 c -1.34896,0 -2.3151,-0.25521 -2.89844,-0.76563 -0.5651,-0.52865 -0.84765,-1.21224 -0.84765,-2.05078 0,-0.82031 0.28255,-1.48568 0.84765,-1.99609 0.58334,-0.52865 1.54948,-0.79297 2.89844,-0.79297 z m 22.54873,-10.63672 v 29.85937 h 6.72657 c 1.34896,0 2.30599,0.26432 2.87109,0.79297 0.58334,0.51042 0.875,1.1849 0.875,2.02344 0,0.82031 -0.29166,1.49479 -0.875,2.02344 -0.5651,0.51041 -1.52213,0.76562 -2.87109,0.76562 h -19.0586 c -1.34895,0 -2.31509,-0.25521 -2.89843,-0.76562 -0.5651,-0.52865 -0.84766,-1.21224 -0.84766,-2.05078 0,-0.82031 0.28256,-1.48568 0.84766,-1.9961 0.58334,-0.52865 1.54948,-0.79297 2.89843,-0.79297 h 6.72657 v -24.2539 h -4.51172 c -1.33073,0 -2.28776,-0.25521 -2.8711,-0.76563 -0.58333,-0.52865 -0.875,-1.21224 -0.875,-2.05078 0,-0.82031 0.28256,-1.48568 0.84766,-1.99609 0.58334,-0.52865 1.54948,-0.79297 2.89844,-0.79297 z m 21.89246,32.375 v 9.1875 h 3.36328 c 1.34896,0 2.306,0.25521 2.8711,0.76562 0.58334,0.52865 0.875,1.21224 0.875,2.05079 0,0.82031 -0.29166,1.48567 -0.875,1.99609 -0.5651,0.52865 -1.52214,0.79297 -2.8711,0.79297 h -9.92578 c -1.34896,0 -2.3151,-0.26432 -2.89844,-0.79297 -0.5651,-0.51042 -0.84765,-1.17578 -0.84765,-1.99609 0,-0.83855 0.29167,-1.52214 0.875,-2.05079 0.58334,-0.51041 1.54037,-0.76562 2.87109,-0.76562 h 0.95703 v -25.32031 h -0.95703 c -1.34896,0 -2.3151,-0.25521 -2.89844,-0.76563 -0.5651,-0.52865 -0.84765,-1.21224 -0.84765,-2.05078 0,-0.82031 0.28255,-1.48568 0.84765,-1.99609 0.58334,-0.52865 1.54948,-0.79297 2.89844,-0.79297 h 6.5625 v 1.91406 c 1.3125,-0.89323 2.67058,-1.55859 4.07422,-1.99609 1.40365,-0.4375 2.84375,-0.65625 4.32031,-0.65625 3.82813,0 7.09115,1.30338 9.78906,3.91015 2.69792,2.58855 4.04688,5.5599 4.04688,8.91407 0,3.70052 -1.59505,6.7539 -4.78516,9.16015 -2.66145,2.00521 -5.66015,3.00781 -8.99609,3.00781 -1.4401,0 -2.86198,-0.20963 -4.26563,-0.6289 -1.40364,-0.41927 -2.79817,-1.04818 -4.18359,-1.88672 z m 16.625,-9.625 c 0,-0.78385 -0.30989,-1.77734 -0.92969,-2.98047 -0.61978,-1.22135 -1.57681,-2.23307 -2.87109,-3.03516 -1.27604,-0.82031 -2.77994,-1.23046 -4.51172,-1.23046 -2.78906,0 -5.0039,1.04818 -6.64453,3.14453 -1.11198,1.4401 -1.66797,2.82552 -1.66797,4.15625 0,1.49479 0.79297,2.95312 2.37891,4.375 1.60417,1.40365 3.58203,2.10547 5.93359,2.10547 2.3698,0 4.34766,-0.70182 5.93359,-2.10547 1.58594,-1.40365 2.37891,-2.88021 2.37891,-4.42969 z"
         id="text41"
         transform="matrix(0.87122107,0,0,0.87122107,-80.598687,93.269659)"
         aria-label="Citrus Pulp "
         sodipodi:nodetypes="ccscsscsscccssssscscccsssccsccsscsscccccccccscscsscscsccscscsccscscscsccscscscscscscscscscscsccccscssssscccscscsscscsccscscscccsscsccssccscscscscscscccscscscccscscccsscsccsscsscscccscssccscscccscsscsscccscscsscscsccscsccccscccsccscscsccccsscsccssccscscscscscscccscscscccscscsscscsccscscscccscscsscscsccscscsccsscscsscsccscscsss" /></g></g></svg>
